<mxfile host="app.diagrams.net" modified="2024-06-25T20:43:41.251Z" agent="Mozilla/5.0 (Windows NT 10.0; Win64; x64; rv:127.0) Gecko/20100101 Firefox/127.0" etag="OALxvrwgl53E2rvd3m7A" version="24.6.3" type="device">
  <diagram name="Page-1" id="VfNYPEKuv-NhzZtcqLzK">
    <mxGraphModel dx="1997" dy="1719" grid="1" gridSize="10" guides="1" tooltips="1" connect="1" arrows="1" fold="1" page="1" pageScale="1" pageWidth="850" pageHeight="1100" math="0" shadow="0">
      <root>
        <mxCell id="0" />
        <mxCell id="1" parent="0" />
        <mxCell id="IDoCD11oqtQJkPwX_qmq-4" style="edgeStyle=orthogonalEdgeStyle;rounded=1;orthogonalLoop=1;jettySize=auto;html=1;endArrow=none;endFill=0;curved=0;" edge="1" parent="1" source="IDoCD11oqtQJkPwX_qmq-1" target="IDoCD11oqtQJkPwX_qmq-2">
          <mxGeometry relative="1" as="geometry" />
        </mxCell>
        <mxCell id="IDoCD11oqtQJkPwX_qmq-9" style="edgeStyle=orthogonalEdgeStyle;rounded=1;orthogonalLoop=1;jettySize=auto;html=1;curved=0;exitX=0.5;exitY=0;exitDx=0;exitDy=0;endArrow=none;endFill=0;" edge="1" parent="1" source="IDoCD11oqtQJkPwX_qmq-1" target="IDoCD11oqtQJkPwX_qmq-3">
          <mxGeometry relative="1" as="geometry">
            <Array as="points">
              <mxPoint x="274" y="60" />
            </Array>
          </mxGeometry>
        </mxCell>
        <mxCell id="IDoCD11oqtQJkPwX_qmq-2" value="" style="sketch=0;outlineConnect=0;fontColor=#232F3E;gradientColor=none;fillColor=#0000FF;strokeColor=none;dashed=0;verticalLabelPosition=bottom;verticalAlign=top;align=center;html=1;fontSize=12;fontStyle=0;aspect=fixed;pointerEvents=1;shape=mxgraph.aws4.iot_thing_humidity_sensor;" vertex="1" parent="1">
          <mxGeometry x="50" y="135" width="78" height="78" as="geometry" />
        </mxCell>
        <mxCell id="IDoCD11oqtQJkPwX_qmq-3" value="" style="sketch=0;outlineConnect=0;fontColor=#232F3E;gradientColor=none;fillColor=#FF0000;strokeColor=none;dashed=0;verticalLabelPosition=bottom;verticalAlign=top;align=center;html=1;fontSize=12;fontStyle=0;aspect=fixed;pointerEvents=1;shape=mxgraph.aws4.iot_thing_temperature_sensor;" vertex="1" parent="1">
          <mxGeometry x="50" y="20" width="78" height="78" as="geometry" />
        </mxCell>
        <mxCell id="IDoCD11oqtQJkPwX_qmq-10" value="" style="group" vertex="1" connectable="0" parent="1">
          <mxGeometry x="210" y="110" width="128" height="128" as="geometry" />
        </mxCell>
        <mxCell id="IDoCD11oqtQJkPwX_qmq-1" value="" style="shape=image;html=1;verticalAlign=top;verticalLabelPosition=bottom;labelBackgroundColor=#ffffff;imageAspect=0;aspect=fixed;image=https://cdn2.iconfinder.com/data/icons/electronic-13/480/3-electronic-arduino-chipset-icon-2-128.png" vertex="1" parent="IDoCD11oqtQJkPwX_qmq-10">
          <mxGeometry width="128" height="128" as="geometry" />
        </mxCell>
        <mxCell id="IDoCD11oqtQJkPwX_qmq-6" value="ESP32" style="text;html=1;align=center;verticalAlign=middle;whiteSpace=wrap;rounded=0;fontStyle=1" vertex="1" parent="IDoCD11oqtQJkPwX_qmq-10">
          <mxGeometry x="34" y="49" width="60" height="30" as="geometry" />
        </mxCell>
        <mxCell id="IDoCD11oqtQJkPwX_qmq-20" style="edgeStyle=orthogonalEdgeStyle;rounded=0;orthogonalLoop=1;jettySize=auto;html=1;" edge="1" parent="1" source="IDoCD11oqtQJkPwX_qmq-11" target="IDoCD11oqtQJkPwX_qmq-19">
          <mxGeometry relative="1" as="geometry" />
        </mxCell>
        <mxCell id="IDoCD11oqtQJkPwX_qmq-11" value="" style="points=[[0.005,0.09,0],[0.08,0,0],[0.76,0.25,0],[1,0.92,0],[0.91,0.995,0],[0.57,0.995,0],[0.045,0.955,0],[0.005,0.43,0]];verticalLabelPosition=bottom;sketch=0;html=1;verticalAlign=top;aspect=fixed;align=center;pointerEvents=1;shape=mxgraph.cisco19.3g_4g_indicator;fillColor=#005073;strokeColor=none;" vertex="1" parent="1">
          <mxGeometry x="450" y="159" width="50" height="50" as="geometry" />
        </mxCell>
        <mxCell id="IDoCD11oqtQJkPwX_qmq-12" style="edgeStyle=orthogonalEdgeStyle;rounded=1;orthogonalLoop=1;jettySize=auto;html=1;entryX=0.005;entryY=0.43;entryDx=0;entryDy=0;entryPerimeter=0;curved=0;endArrow=none;endFill=0;" edge="1" parent="1" source="IDoCD11oqtQJkPwX_qmq-84" target="IDoCD11oqtQJkPwX_qmq-11">
          <mxGeometry relative="1" as="geometry">
            <Array as="points">
              <mxPoint x="390" y="180" />
            </Array>
          </mxGeometry>
        </mxCell>
        <mxCell id="IDoCD11oqtQJkPwX_qmq-15" value="Arduino" style="swimlane;whiteSpace=wrap;html=1;fillColor=#d5e8d4;strokeColor=#82b366;" vertex="1" parent="1">
          <mxGeometry y="-10" width="380" height="273" as="geometry" />
        </mxCell>
        <mxCell id="IDoCD11oqtQJkPwX_qmq-16" value="Client" style="swimlane;whiteSpace=wrap;html=1;fillColor=#e1d5e7;strokeColor=#9673a6;" vertex="1" parent="1">
          <mxGeometry x="530" y="-10" width="380" height="260" as="geometry" />
        </mxCell>
        <mxCell id="IDoCD11oqtQJkPwX_qmq-17" value="" style="fontColor=#0066CC;verticalAlign=top;verticalLabelPosition=bottom;labelPosition=center;align=center;html=1;outlineConnect=0;fillColor=#CCCCCC;strokeColor=#6881B3;gradientColor=none;gradientDirection=north;strokeWidth=2;shape=mxgraph.networks.mobile;" vertex="1" parent="IDoCD11oqtQJkPwX_qmq-16">
          <mxGeometry x="40" y="30" width="50" height="100" as="geometry" />
        </mxCell>
        <mxCell id="IDoCD11oqtQJkPwX_qmq-19" value="" style="fontColor=#0066CC;verticalAlign=top;verticalLabelPosition=bottom;labelPosition=center;align=center;html=1;outlineConnect=0;fillColor=#CCCCCC;strokeColor=#6881B3;gradientColor=none;gradientDirection=north;strokeWidth=2;shape=mxgraph.networks.laptop;" vertex="1" parent="IDoCD11oqtQJkPwX_qmq-16">
          <mxGeometry x="220" y="166.5" width="100" height="55" as="geometry" />
        </mxCell>
        <mxCell id="IDoCD11oqtQJkPwX_qmq-18" style="edgeStyle=orthogonalEdgeStyle;rounded=0;orthogonalLoop=1;jettySize=auto;html=1;entryX=0.5;entryY=1;entryDx=0;entryDy=0;entryPerimeter=0;" edge="1" parent="1" source="IDoCD11oqtQJkPwX_qmq-11" target="IDoCD11oqtQJkPwX_qmq-17">
          <mxGeometry relative="1" as="geometry" />
        </mxCell>
        <mxCell id="IDoCD11oqtQJkPwX_qmq-21" value="Modelo Básico" style="swimlane;horizontal=0;whiteSpace=wrap;html=1;fillColor=#fff2cc;strokeColor=#d6b656;" vertex="1" parent="1">
          <mxGeometry x="-30" y="-40" width="960" height="320" as="geometry" />
        </mxCell>
        <mxCell id="IDoCD11oqtQJkPwX_qmq-22" style="edgeStyle=orthogonalEdgeStyle;rounded=1;orthogonalLoop=1;jettySize=auto;html=1;endArrow=none;endFill=0;curved=0;" edge="1" parent="1" source="IDoCD11oqtQJkPwX_qmq-27" target="IDoCD11oqtQJkPwX_qmq-24">
          <mxGeometry relative="1" as="geometry" />
        </mxCell>
        <mxCell id="IDoCD11oqtQJkPwX_qmq-23" style="edgeStyle=orthogonalEdgeStyle;rounded=1;orthogonalLoop=1;jettySize=auto;html=1;curved=0;exitX=0.5;exitY=0;exitDx=0;exitDy=0;endArrow=none;endFill=0;" edge="1" parent="1" source="IDoCD11oqtQJkPwX_qmq-27" target="IDoCD11oqtQJkPwX_qmq-25">
          <mxGeometry relative="1" as="geometry">
            <Array as="points">
              <mxPoint x="224" y="420" />
            </Array>
          </mxGeometry>
        </mxCell>
        <mxCell id="IDoCD11oqtQJkPwX_qmq-24" value="" style="sketch=0;outlineConnect=0;fontColor=#232F3E;gradientColor=none;fillColor=#0000FF;strokeColor=none;dashed=0;verticalLabelPosition=bottom;verticalAlign=top;align=center;html=1;fontSize=12;fontStyle=0;aspect=fixed;pointerEvents=1;shape=mxgraph.aws4.iot_thing_humidity_sensor;" vertex="1" parent="1">
          <mxGeometry x="50" y="495" width="78" height="78" as="geometry" />
        </mxCell>
        <mxCell id="IDoCD11oqtQJkPwX_qmq-25" value="" style="sketch=0;outlineConnect=0;fontColor=#232F3E;gradientColor=none;fillColor=#FF0000;strokeColor=none;dashed=0;verticalLabelPosition=bottom;verticalAlign=top;align=center;html=1;fontSize=12;fontStyle=0;aspect=fixed;pointerEvents=1;shape=mxgraph.aws4.iot_thing_temperature_sensor;" vertex="1" parent="1">
          <mxGeometry x="50" y="380" width="78" height="78" as="geometry" />
        </mxCell>
        <mxCell id="IDoCD11oqtQJkPwX_qmq-32" value="Arduino" style="swimlane;whiteSpace=wrap;html=1;fillColor=#d5e8d4;strokeColor=#82b366;" vertex="1" parent="1">
          <mxGeometry y="350" width="380" height="260" as="geometry" />
        </mxCell>
        <mxCell id="IDoCD11oqtQJkPwX_qmq-33" value="Client" style="swimlane;whiteSpace=wrap;html=1;fillColor=#e1d5e7;strokeColor=#9673a6;" vertex="1" parent="1">
          <mxGeometry x="530" y="350" width="380" height="260" as="geometry" />
        </mxCell>
        <mxCell id="IDoCD11oqtQJkPwX_qmq-34" value="" style="fontColor=#0066CC;verticalAlign=top;verticalLabelPosition=bottom;labelPosition=center;align=center;html=1;outlineConnect=0;fillColor=#CCCCCC;strokeColor=#6881B3;gradientColor=none;gradientDirection=north;strokeWidth=2;shape=mxgraph.networks.mobile;" vertex="1" parent="IDoCD11oqtQJkPwX_qmq-33">
          <mxGeometry x="40" y="30" width="50" height="100" as="geometry" />
        </mxCell>
        <mxCell id="IDoCD11oqtQJkPwX_qmq-35" value="" style="fontColor=#0066CC;verticalAlign=top;verticalLabelPosition=bottom;labelPosition=center;align=center;html=1;outlineConnect=0;fillColor=#CCCCCC;strokeColor=#6881B3;gradientColor=none;gradientDirection=north;strokeWidth=2;shape=mxgraph.networks.laptop;" vertex="1" parent="IDoCD11oqtQJkPwX_qmq-33">
          <mxGeometry x="220" y="166.5" width="100" height="55" as="geometry" />
        </mxCell>
        <mxCell id="IDoCD11oqtQJkPwX_qmq-37" value="Modelo Básico - Infra Ampliada" style="swimlane;horizontal=0;whiteSpace=wrap;html=1;fillColor=#fff2cc;strokeColor=#d6b656;" vertex="1" parent="1">
          <mxGeometry x="-30" y="320" width="960" height="490" as="geometry" />
        </mxCell>
        <mxCell id="IDoCD11oqtQJkPwX_qmq-39" style="edgeStyle=orthogonalEdgeStyle;rounded=0;orthogonalLoop=1;jettySize=auto;html=1;endArrow=none;endFill=0;" edge="1" parent="IDoCD11oqtQJkPwX_qmq-37" source="IDoCD11oqtQJkPwX_qmq-30" target="IDoCD11oqtQJkPwX_qmq-38">
          <mxGeometry relative="1" as="geometry" />
        </mxCell>
        <mxCell id="IDoCD11oqtQJkPwX_qmq-30" value="" style="points=[[0.005,0.09,0],[0.08,0,0],[0.76,0.25,0],[1,0.92,0],[0.91,0.995,0],[0.57,0.995,0],[0.045,0.955,0],[0.005,0.43,0]];verticalLabelPosition=bottom;sketch=0;html=1;verticalAlign=top;aspect=fixed;align=center;pointerEvents=1;shape=mxgraph.cisco19.3g_4g_indicator;fillColor=#005073;strokeColor=none;" vertex="1" parent="IDoCD11oqtQJkPwX_qmq-37">
          <mxGeometry x="430" y="199" width="50" height="50" as="geometry" />
        </mxCell>
        <mxCell id="IDoCD11oqtQJkPwX_qmq-26" value="" style="group" vertex="1" connectable="0" parent="IDoCD11oqtQJkPwX_qmq-37">
          <mxGeometry x="190" y="150" width="128" height="128" as="geometry" />
        </mxCell>
        <mxCell id="IDoCD11oqtQJkPwX_qmq-27" value="" style="shape=image;html=1;verticalAlign=top;verticalLabelPosition=bottom;labelBackgroundColor=#ffffff;imageAspect=0;aspect=fixed;image=https://cdn2.iconfinder.com/data/icons/electronic-13/480/3-electronic-arduino-chipset-icon-2-128.png" vertex="1" parent="IDoCD11oqtQJkPwX_qmq-26">
          <mxGeometry width="128" height="128" as="geometry" />
        </mxCell>
        <mxCell id="IDoCD11oqtQJkPwX_qmq-28" value="ESP32" style="text;html=1;align=center;verticalAlign=middle;whiteSpace=wrap;rounded=0;fontStyle=1" vertex="1" parent="IDoCD11oqtQJkPwX_qmq-26">
          <mxGeometry x="34" y="49" width="60" height="30" as="geometry" />
        </mxCell>
        <mxCell id="IDoCD11oqtQJkPwX_qmq-31" style="edgeStyle=orthogonalEdgeStyle;rounded=1;orthogonalLoop=1;jettySize=auto;html=1;entryX=0.005;entryY=0.43;entryDx=0;entryDy=0;entryPerimeter=0;curved=0;endArrow=none;endFill=0;" edge="1" parent="IDoCD11oqtQJkPwX_qmq-37" source="IDoCD11oqtQJkPwX_qmq-71" target="IDoCD11oqtQJkPwX_qmq-30">
          <mxGeometry relative="1" as="geometry">
            <Array as="points">
              <mxPoint x="340" y="220" />
            </Array>
          </mxGeometry>
        </mxCell>
        <mxCell id="IDoCD11oqtQJkPwX_qmq-38" value="" style="fontColor=#0066CC;verticalAlign=top;verticalLabelPosition=bottom;labelPosition=center;align=center;html=1;outlineConnect=0;fillColor=#CCCCCC;strokeColor=#6881B3;gradientColor=none;gradientDirection=north;strokeWidth=2;shape=mxgraph.networks.wireless_modem;" vertex="1" parent="IDoCD11oqtQJkPwX_qmq-37">
          <mxGeometry x="405" y="350" width="100" height="85" as="geometry" />
        </mxCell>
        <mxCell id="IDoCD11oqtQJkPwX_qmq-73" value="" style="edgeStyle=orthogonalEdgeStyle;rounded=1;orthogonalLoop=1;jettySize=auto;html=1;entryX=0.005;entryY=0.43;entryDx=0;entryDy=0;entryPerimeter=0;curved=0;endArrow=none;endFill=0;" edge="1" parent="IDoCD11oqtQJkPwX_qmq-37" source="IDoCD11oqtQJkPwX_qmq-28" target="IDoCD11oqtQJkPwX_qmq-71">
          <mxGeometry relative="1" as="geometry">
            <Array as="points" />
            <mxPoint x="254" y="540" as="sourcePoint" />
            <mxPoint x="400" y="541" as="targetPoint" />
          </mxGeometry>
        </mxCell>
        <mxCell id="IDoCD11oqtQJkPwX_qmq-71" value="" style="shape=image;html=1;verticalAlign=top;verticalLabelPosition=bottom;labelBackgroundColor=#ffffff;imageAspect=0;aspect=fixed;image=https://cdn2.iconfinder.com/data/icons/boxicons-solid-vol-2/24/bxs-file-html-128.png" vertex="1" parent="IDoCD11oqtQJkPwX_qmq-37">
          <mxGeometry x="340" y="196.5" width="43" height="43" as="geometry" />
        </mxCell>
        <mxCell id="IDoCD11oqtQJkPwX_qmq-40" style="edgeStyle=orthogonalEdgeStyle;rounded=1;orthogonalLoop=1;jettySize=auto;html=1;entryX=0.5;entryY=1;entryDx=0;entryDy=0;curved=0;endArrow=none;endFill=0;" edge="1" parent="1" source="IDoCD11oqtQJkPwX_qmq-38" target="IDoCD11oqtQJkPwX_qmq-33">
          <mxGeometry relative="1" as="geometry" />
        </mxCell>
        <mxCell id="IDoCD11oqtQJkPwX_qmq-41" style="edgeStyle=orthogonalEdgeStyle;rounded=1;orthogonalLoop=1;jettySize=auto;html=1;endArrow=none;endFill=0;curved=0;" edge="1" parent="1" source="IDoCD11oqtQJkPwX_qmq-53" target="IDoCD11oqtQJkPwX_qmq-43">
          <mxGeometry relative="1" as="geometry" />
        </mxCell>
        <mxCell id="IDoCD11oqtQJkPwX_qmq-42" style="edgeStyle=orthogonalEdgeStyle;rounded=1;orthogonalLoop=1;jettySize=auto;html=1;curved=0;exitX=0.5;exitY=0;exitDx=0;exitDy=0;endArrow=none;endFill=0;" edge="1" parent="1" source="IDoCD11oqtQJkPwX_qmq-53" target="IDoCD11oqtQJkPwX_qmq-44">
          <mxGeometry relative="1" as="geometry">
            <Array as="points">
              <mxPoint x="224" y="940" />
            </Array>
          </mxGeometry>
        </mxCell>
        <mxCell id="IDoCD11oqtQJkPwX_qmq-43" value="" style="sketch=0;outlineConnect=0;fontColor=#232F3E;gradientColor=none;fillColor=#0000FF;strokeColor=none;dashed=0;verticalLabelPosition=bottom;verticalAlign=top;align=center;html=1;fontSize=12;fontStyle=0;aspect=fixed;pointerEvents=1;shape=mxgraph.aws4.iot_thing_humidity_sensor;" vertex="1" parent="1">
          <mxGeometry x="50" y="1015" width="78" height="78" as="geometry" />
        </mxCell>
        <mxCell id="IDoCD11oqtQJkPwX_qmq-44" value="" style="sketch=0;outlineConnect=0;fontColor=#232F3E;gradientColor=none;fillColor=#FF0000;strokeColor=none;dashed=0;verticalLabelPosition=bottom;verticalAlign=top;align=center;html=1;fontSize=12;fontStyle=0;aspect=fixed;pointerEvents=1;shape=mxgraph.aws4.iot_thing_temperature_sensor;" vertex="1" parent="1">
          <mxGeometry x="50" y="900" width="78" height="78" as="geometry" />
        </mxCell>
        <mxCell id="IDoCD11oqtQJkPwX_qmq-45" value="Arduino" style="swimlane;whiteSpace=wrap;html=1;fillColor=#d5e8d4;strokeColor=#82b366;" vertex="1" parent="1">
          <mxGeometry y="870" width="380" height="260" as="geometry" />
        </mxCell>
        <mxCell id="IDoCD11oqtQJkPwX_qmq-46" value="Client" style="swimlane;whiteSpace=wrap;html=1;fillColor=#e1d5e7;strokeColor=#9673a6;" vertex="1" parent="1">
          <mxGeometry x="530" y="870" width="380" height="260" as="geometry" />
        </mxCell>
        <mxCell id="IDoCD11oqtQJkPwX_qmq-47" value="" style="fontColor=#0066CC;verticalAlign=top;verticalLabelPosition=bottom;labelPosition=center;align=center;html=1;outlineConnect=0;fillColor=#CCCCCC;strokeColor=#6881B3;gradientColor=none;gradientDirection=north;strokeWidth=2;shape=mxgraph.networks.mobile;" vertex="1" parent="IDoCD11oqtQJkPwX_qmq-46">
          <mxGeometry x="40" y="30" width="50" height="100" as="geometry" />
        </mxCell>
        <mxCell id="IDoCD11oqtQJkPwX_qmq-49" value="Modelo Intermediário" style="swimlane;horizontal=0;whiteSpace=wrap;html=1;fillColor=#fff2cc;strokeColor=#d6b656;" vertex="1" parent="1">
          <mxGeometry x="-30" y="840" width="960" height="490" as="geometry" />
        </mxCell>
        <mxCell id="IDoCD11oqtQJkPwX_qmq-50" style="edgeStyle=orthogonalEdgeStyle;rounded=0;orthogonalLoop=1;jettySize=auto;html=1;endArrow=none;endFill=0;" edge="1" parent="IDoCD11oqtQJkPwX_qmq-49" source="IDoCD11oqtQJkPwX_qmq-51" target="IDoCD11oqtQJkPwX_qmq-56">
          <mxGeometry relative="1" as="geometry" />
        </mxCell>
        <mxCell id="IDoCD11oqtQJkPwX_qmq-105" style="edgeStyle=orthogonalEdgeStyle;rounded=0;orthogonalLoop=1;jettySize=auto;html=1;entryX=1;entryY=0.5;entryDx=0;entryDy=0;endArrow=none;endFill=0;" edge="1" parent="IDoCD11oqtQJkPwX_qmq-49" source="IDoCD11oqtQJkPwX_qmq-51" target="IDoCD11oqtQJkPwX_qmq-53">
          <mxGeometry relative="1" as="geometry" />
        </mxCell>
        <mxCell id="IDoCD11oqtQJkPwX_qmq-51" value="" style="points=[[0.005,0.09,0],[0.08,0,0],[0.76,0.25,0],[1,0.92,0],[0.91,0.995,0],[0.57,0.995,0],[0.045,0.955,0],[0.005,0.43,0]];verticalLabelPosition=bottom;sketch=0;html=1;verticalAlign=top;aspect=fixed;align=center;pointerEvents=1;shape=mxgraph.cisco19.3g_4g_indicator;fillColor=#005073;strokeColor=none;" vertex="1" parent="IDoCD11oqtQJkPwX_qmq-49">
          <mxGeometry x="430" y="189" width="50" height="50" as="geometry" />
        </mxCell>
        <mxCell id="IDoCD11oqtQJkPwX_qmq-52" value="" style="group" vertex="1" connectable="0" parent="IDoCD11oqtQJkPwX_qmq-49">
          <mxGeometry x="190" y="150" width="128" height="128" as="geometry" />
        </mxCell>
        <mxCell id="IDoCD11oqtQJkPwX_qmq-53" value="" style="shape=image;html=1;verticalAlign=top;verticalLabelPosition=bottom;labelBackgroundColor=#ffffff;imageAspect=0;aspect=fixed;image=https://cdn2.iconfinder.com/data/icons/electronic-13/480/3-electronic-arduino-chipset-icon-2-128.png" vertex="1" parent="IDoCD11oqtQJkPwX_qmq-52">
          <mxGeometry width="128" height="128" as="geometry" />
        </mxCell>
        <mxCell id="IDoCD11oqtQJkPwX_qmq-54" value="ESP32" style="text;html=1;align=center;verticalAlign=middle;whiteSpace=wrap;rounded=0;fontStyle=1" vertex="1" parent="IDoCD11oqtQJkPwX_qmq-52">
          <mxGeometry x="34" y="49" width="60" height="30" as="geometry" />
        </mxCell>
        <mxCell id="IDoCD11oqtQJkPwX_qmq-56" value="" style="fontColor=#0066CC;verticalAlign=top;verticalLabelPosition=bottom;labelPosition=center;align=center;html=1;outlineConnect=0;fillColor=#CCCCCC;strokeColor=#6881B3;gradientColor=none;gradientDirection=north;strokeWidth=2;shape=mxgraph.networks.wireless_modem;" vertex="1" parent="IDoCD11oqtQJkPwX_qmq-49">
          <mxGeometry x="405" y="350" width="100" height="85" as="geometry" />
        </mxCell>
        <mxCell id="IDoCD11oqtQJkPwX_qmq-106" value="" style="shape=image;html=1;verticalAlign=top;verticalLabelPosition=bottom;labelBackgroundColor=#ffffff;imageAspect=0;aspect=fixed;image=https://cdn2.iconfinder.com/data/icons/boxicons-solid-vol-2/24/bxs-file-html-128.png" vertex="1" parent="IDoCD11oqtQJkPwX_qmq-49">
          <mxGeometry x="690" y="150" width="128" height="128" as="geometry" />
        </mxCell>
        <mxCell id="IDoCD11oqtQJkPwX_qmq-107" style="edgeStyle=orthogonalEdgeStyle;rounded=1;orthogonalLoop=1;jettySize=auto;html=1;entryX=0.5;entryY=0;entryDx=0;entryDy=0;exitX=0.15;exitY=0.5;exitDx=0;exitDy=0;exitPerimeter=0;curved=0;" edge="1" parent="IDoCD11oqtQJkPwX_qmq-49" source="IDoCD11oqtQJkPwX_qmq-48" target="IDoCD11oqtQJkPwX_qmq-106">
          <mxGeometry relative="1" as="geometry">
            <Array as="points">
              <mxPoint x="825" y="100" />
              <mxPoint x="754" y="100" />
            </Array>
          </mxGeometry>
        </mxCell>
        <mxCell id="IDoCD11oqtQJkPwX_qmq-48" value="" style="fontColor=#0066CC;verticalAlign=top;verticalLabelPosition=bottom;labelPosition=center;align=center;html=1;outlineConnect=0;fillColor=#CCCCCC;strokeColor=#6881B3;gradientColor=none;gradientDirection=north;strokeWidth=2;shape=mxgraph.networks.laptop;" vertex="1" parent="IDoCD11oqtQJkPwX_qmq-49">
          <mxGeometry x="810" y="70" width="100" height="55" as="geometry" />
        </mxCell>
        <mxCell id="IDoCD11oqtQJkPwX_qmq-57" style="edgeStyle=orthogonalEdgeStyle;rounded=1;orthogonalLoop=1;jettySize=auto;html=1;entryX=0.5;entryY=1;entryDx=0;entryDy=0;curved=0;endArrow=none;endFill=0;" edge="1" parent="1" source="IDoCD11oqtQJkPwX_qmq-56" target="IDoCD11oqtQJkPwX_qmq-46">
          <mxGeometry relative="1" as="geometry" />
        </mxCell>
        <mxCell id="IDoCD11oqtQJkPwX_qmq-85" value="" style="edgeStyle=orthogonalEdgeStyle;rounded=1;orthogonalLoop=1;jettySize=auto;html=1;entryX=0.005;entryY=0.43;entryDx=0;entryDy=0;entryPerimeter=0;curved=0;endArrow=none;endFill=0;" edge="1" parent="1" source="IDoCD11oqtQJkPwX_qmq-6" target="IDoCD11oqtQJkPwX_qmq-84">
          <mxGeometry relative="1" as="geometry">
            <mxPoint x="304" y="181" as="sourcePoint" />
            <mxPoint x="450" y="181" as="targetPoint" />
            <Array as="points" />
          </mxGeometry>
        </mxCell>
        <mxCell id="IDoCD11oqtQJkPwX_qmq-84" value="" style="shape=image;html=1;verticalAlign=top;verticalLabelPosition=bottom;labelBackgroundColor=#ffffff;imageAspect=0;aspect=fixed;image=https://cdn2.iconfinder.com/data/icons/boxicons-solid-vol-2/24/bxs-file-html-128.png" vertex="1" parent="1">
          <mxGeometry x="332" y="152.5" width="43" height="43" as="geometry" />
        </mxCell>
        <mxCell id="IDoCD11oqtQJkPwX_qmq-108" style="edgeStyle=orthogonalEdgeStyle;rounded=1;orthogonalLoop=1;jettySize=auto;html=1;entryX=0.25;entryY=0;entryDx=0;entryDy=0;curved=0;" edge="1" parent="1" source="IDoCD11oqtQJkPwX_qmq-47" target="IDoCD11oqtQJkPwX_qmq-106">
          <mxGeometry relative="1" as="geometry" />
        </mxCell>
        <mxCell id="IDoCD11oqtQJkPwX_qmq-109" style="edgeStyle=orthogonalEdgeStyle;rounded=1;orthogonalLoop=1;jettySize=auto;html=1;endArrow=none;endFill=0;curved=0;" edge="1" parent="1" source="IDoCD11oqtQJkPwX_qmq-121" target="IDoCD11oqtQJkPwX_qmq-111">
          <mxGeometry relative="1" as="geometry" />
        </mxCell>
        <mxCell id="IDoCD11oqtQJkPwX_qmq-110" style="edgeStyle=orthogonalEdgeStyle;rounded=1;orthogonalLoop=1;jettySize=auto;html=1;curved=0;exitX=0.5;exitY=0;exitDx=0;exitDy=0;endArrow=none;endFill=0;" edge="1" parent="1" source="IDoCD11oqtQJkPwX_qmq-121" target="IDoCD11oqtQJkPwX_qmq-112">
          <mxGeometry relative="1" as="geometry">
            <Array as="points">
              <mxPoint x="224" y="1460" />
            </Array>
          </mxGeometry>
        </mxCell>
        <mxCell id="IDoCD11oqtQJkPwX_qmq-111" value="" style="sketch=0;outlineConnect=0;fontColor=#232F3E;gradientColor=none;fillColor=#0000FF;strokeColor=none;dashed=0;verticalLabelPosition=bottom;verticalAlign=top;align=center;html=1;fontSize=12;fontStyle=0;aspect=fixed;pointerEvents=1;shape=mxgraph.aws4.iot_thing_humidity_sensor;" vertex="1" parent="1">
          <mxGeometry x="50" y="1535" width="78" height="78" as="geometry" />
        </mxCell>
        <mxCell id="IDoCD11oqtQJkPwX_qmq-112" value="" style="sketch=0;outlineConnect=0;fontColor=#232F3E;gradientColor=none;fillColor=#FF0000;strokeColor=none;dashed=0;verticalLabelPosition=bottom;verticalAlign=top;align=center;html=1;fontSize=12;fontStyle=0;aspect=fixed;pointerEvents=1;shape=mxgraph.aws4.iot_thing_temperature_sensor;" vertex="1" parent="1">
          <mxGeometry x="50" y="1420" width="78" height="78" as="geometry" />
        </mxCell>
        <mxCell id="IDoCD11oqtQJkPwX_qmq-113" value="Arduino" style="swimlane;whiteSpace=wrap;html=1;fillColor=#d5e8d4;strokeColor=#82b366;" vertex="1" parent="1">
          <mxGeometry y="1390" width="380" height="260" as="geometry" />
        </mxCell>
        <mxCell id="IDoCD11oqtQJkPwX_qmq-114" value="Client" style="swimlane;whiteSpace=wrap;html=1;fillColor=#e1d5e7;strokeColor=#9673a6;" vertex="1" parent="1">
          <mxGeometry x="530" y="1390" width="380" height="260" as="geometry" />
        </mxCell>
        <mxCell id="IDoCD11oqtQJkPwX_qmq-115" value="" style="fontColor=#0066CC;verticalAlign=top;verticalLabelPosition=bottom;labelPosition=center;align=center;html=1;outlineConnect=0;fillColor=#CCCCCC;strokeColor=#6881B3;gradientColor=none;gradientDirection=north;strokeWidth=2;shape=mxgraph.networks.mobile;" vertex="1" parent="IDoCD11oqtQJkPwX_qmq-114">
          <mxGeometry x="40" y="30" width="50" height="100" as="geometry" />
        </mxCell>
        <mxCell id="IDoCD11oqtQJkPwX_qmq-116" value="&lt;div&gt;Modelo Completo&lt;/div&gt;" style="swimlane;horizontal=0;whiteSpace=wrap;html=1;fillColor=#fff2cc;strokeColor=#d6b656;" vertex="1" parent="1">
          <mxGeometry x="-30" y="1360" width="960" height="610" as="geometry" />
        </mxCell>
        <mxCell id="IDoCD11oqtQJkPwX_qmq-117" style="edgeStyle=orthogonalEdgeStyle;rounded=0;orthogonalLoop=1;jettySize=auto;html=1;endArrow=none;endFill=0;exitX=1;exitY=0.92;exitDx=0;exitDy=0;exitPerimeter=0;" edge="1" parent="IDoCD11oqtQJkPwX_qmq-116" source="IDoCD11oqtQJkPwX_qmq-119" target="IDoCD11oqtQJkPwX_qmq-123">
          <mxGeometry relative="1" as="geometry">
            <Array as="points">
              <mxPoint x="490" y="235" />
            </Array>
          </mxGeometry>
        </mxCell>
        <mxCell id="IDoCD11oqtQJkPwX_qmq-118" style="edgeStyle=orthogonalEdgeStyle;rounded=0;orthogonalLoop=1;jettySize=auto;html=1;entryX=1;entryY=0.5;entryDx=0;entryDy=0;endArrow=none;endFill=0;" edge="1" parent="IDoCD11oqtQJkPwX_qmq-116" source="IDoCD11oqtQJkPwX_qmq-119" target="IDoCD11oqtQJkPwX_qmq-121">
          <mxGeometry relative="1" as="geometry" />
        </mxCell>
        <mxCell id="IDoCD11oqtQJkPwX_qmq-119" value="" style="points=[[0.005,0.09,0],[0.08,0,0],[0.76,0.25,0],[1,0.92,0],[0.91,0.995,0],[0.57,0.995,0],[0.045,0.955,0],[0.005,0.43,0]];verticalLabelPosition=bottom;sketch=0;html=1;verticalAlign=top;aspect=fixed;align=center;pointerEvents=1;shape=mxgraph.cisco19.3g_4g_indicator;fillColor=#005073;strokeColor=none;" vertex="1" parent="IDoCD11oqtQJkPwX_qmq-116">
          <mxGeometry x="430" y="189" width="50" height="50" as="geometry" />
        </mxCell>
        <mxCell id="IDoCD11oqtQJkPwX_qmq-120" value="" style="group" vertex="1" connectable="0" parent="IDoCD11oqtQJkPwX_qmq-116">
          <mxGeometry x="190" y="150" width="128" height="128" as="geometry" />
        </mxCell>
        <mxCell id="IDoCD11oqtQJkPwX_qmq-121" value="" style="shape=image;html=1;verticalAlign=top;verticalLabelPosition=bottom;labelBackgroundColor=#ffffff;imageAspect=0;aspect=fixed;image=https://cdn2.iconfinder.com/data/icons/electronic-13/480/3-electronic-arduino-chipset-icon-2-128.png" vertex="1" parent="IDoCD11oqtQJkPwX_qmq-120">
          <mxGeometry width="128" height="128" as="geometry" />
        </mxCell>
        <mxCell id="IDoCD11oqtQJkPwX_qmq-122" value="ESP32" style="text;html=1;align=center;verticalAlign=middle;whiteSpace=wrap;rounded=0;fontStyle=1" vertex="1" parent="IDoCD11oqtQJkPwX_qmq-120">
          <mxGeometry x="34" y="49" width="60" height="30" as="geometry" />
        </mxCell>
        <mxCell id="IDoCD11oqtQJkPwX_qmq-123" value="" style="fontColor=#0066CC;verticalAlign=top;verticalLabelPosition=bottom;labelPosition=center;align=center;html=1;outlineConnect=0;fillColor=#CCCCCC;strokeColor=#6881B3;gradientColor=none;gradientDirection=north;strokeWidth=2;shape=mxgraph.networks.wireless_modem;" vertex="1" parent="IDoCD11oqtQJkPwX_qmq-116">
          <mxGeometry x="440" y="262.5" width="100" height="85" as="geometry" />
        </mxCell>
        <mxCell id="IDoCD11oqtQJkPwX_qmq-124" value="" style="shape=image;html=1;verticalAlign=top;verticalLabelPosition=bottom;labelBackgroundColor=#ffffff;imageAspect=0;aspect=fixed;image=https://cdn2.iconfinder.com/data/icons/boxicons-solid-vol-2/24/bxs-file-html-128.png" vertex="1" parent="IDoCD11oqtQJkPwX_qmq-116">
          <mxGeometry x="690" y="150" width="128" height="128" as="geometry" />
        </mxCell>
        <mxCell id="IDoCD11oqtQJkPwX_qmq-125" style="edgeStyle=orthogonalEdgeStyle;rounded=1;orthogonalLoop=1;jettySize=auto;html=1;entryX=0.5;entryY=0;entryDx=0;entryDy=0;exitX=0.15;exitY=0.5;exitDx=0;exitDy=0;exitPerimeter=0;curved=0;" edge="1" parent="IDoCD11oqtQJkPwX_qmq-116" source="IDoCD11oqtQJkPwX_qmq-126" target="IDoCD11oqtQJkPwX_qmq-124">
          <mxGeometry relative="1" as="geometry">
            <Array as="points">
              <mxPoint x="825" y="100" />
              <mxPoint x="754" y="100" />
            </Array>
          </mxGeometry>
        </mxCell>
        <mxCell id="IDoCD11oqtQJkPwX_qmq-126" value="" style="fontColor=#0066CC;verticalAlign=top;verticalLabelPosition=bottom;labelPosition=center;align=center;html=1;outlineConnect=0;fillColor=#CCCCCC;strokeColor=#6881B3;gradientColor=none;gradientDirection=north;strokeWidth=2;shape=mxgraph.networks.laptop;" vertex="1" parent="IDoCD11oqtQJkPwX_qmq-116">
          <mxGeometry x="810" y="70" width="100" height="55" as="geometry" />
        </mxCell>
        <mxCell id="IDoCD11oqtQJkPwX_qmq-129" value="Web API" style="swimlane;whiteSpace=wrap;html=1;fillColor=#dae8fc;strokeColor=#6c8ebf;" vertex="1" parent="IDoCD11oqtQJkPwX_qmq-116">
          <mxGeometry x="30" y="360" width="380" height="240" as="geometry" />
        </mxCell>
        <mxCell id="IDoCD11oqtQJkPwX_qmq-130" value="" style="fontColor=#0066CC;verticalAlign=top;verticalLabelPosition=bottom;labelPosition=center;align=center;html=1;outlineConnect=0;fillColor=#CCCCCC;strokeColor=#6881B3;gradientColor=none;gradientDirection=north;strokeWidth=2;shape=mxgraph.networks.web_server;" vertex="1" parent="IDoCD11oqtQJkPwX_qmq-129">
          <mxGeometry x="149" y="60" width="105" height="105" as="geometry" />
        </mxCell>
        <mxCell id="IDoCD11oqtQJkPwX_qmq-132" value="" style="outlineConnect=0;dashed=0;verticalLabelPosition=bottom;verticalAlign=top;align=center;html=1;shape=mxgraph.aws3.mysql_db_instance;fillColor=#2E73B8;gradientColor=none;" vertex="1" parent="IDoCD11oqtQJkPwX_qmq-129">
          <mxGeometry x="20" y="81" width="60" height="64.5" as="geometry" />
        </mxCell>
        <mxCell id="IDoCD11oqtQJkPwX_qmq-133" style="edgeStyle=orthogonalEdgeStyle;rounded=0;orthogonalLoop=1;jettySize=auto;html=1;entryX=1;entryY=0.5;entryDx=0;entryDy=0;entryPerimeter=0;endArrow=none;endFill=0;" edge="1" parent="IDoCD11oqtQJkPwX_qmq-129" source="IDoCD11oqtQJkPwX_qmq-130" target="IDoCD11oqtQJkPwX_qmq-132">
          <mxGeometry relative="1" as="geometry" />
        </mxCell>
        <mxCell id="IDoCD11oqtQJkPwX_qmq-131" style="edgeStyle=orthogonalEdgeStyle;rounded=1;orthogonalLoop=1;jettySize=auto;html=1;endArrow=none;endFill=0;curved=0;" edge="1" parent="IDoCD11oqtQJkPwX_qmq-116" source="IDoCD11oqtQJkPwX_qmq-130" target="IDoCD11oqtQJkPwX_qmq-123">
          <mxGeometry relative="1" as="geometry" />
        </mxCell>
        <mxCell id="IDoCD11oqtQJkPwX_qmq-128" style="edgeStyle=orthogonalEdgeStyle;rounded=1;orthogonalLoop=1;jettySize=auto;html=1;entryX=0.25;entryY=0;entryDx=0;entryDy=0;curved=0;" edge="1" parent="1" source="IDoCD11oqtQJkPwX_qmq-115" target="IDoCD11oqtQJkPwX_qmq-124">
          <mxGeometry relative="1" as="geometry" />
        </mxCell>
        <mxCell id="IDoCD11oqtQJkPwX_qmq-134" style="edgeStyle=orthogonalEdgeStyle;rounded=1;orthogonalLoop=1;jettySize=auto;html=1;entryX=0.5;entryY=1;entryDx=0;entryDy=0;curved=0;endArrow=none;endFill=0;" edge="1" parent="1" source="IDoCD11oqtQJkPwX_qmq-130" target="IDoCD11oqtQJkPwX_qmq-114">
          <mxGeometry relative="1" as="geometry">
            <Array as="points">
              <mxPoint x="720" y="1860" />
            </Array>
          </mxGeometry>
        </mxCell>
        <mxCell id="IDoCD11oqtQJkPwX_qmq-137" value="&lt;h1 style=&quot;margin-top: 0px;&quot;&gt;Adicionais&lt;/h1&gt;&lt;p&gt;Exibição de Histórico com o Chart.js&lt;/p&gt;&lt;p&gt;Adição de módulos de luz e som para alarmes&lt;/p&gt;&lt;p&gt;Permitir gravar as condições lógica dos sensores na aplicação&lt;/p&gt;&lt;p&gt;Adição de módulos de fumaça, iluminação, odor, inclinação, chamas, etc.&lt;br&gt;&lt;/p&gt;&lt;p&gt;&lt;br&gt;&lt;/p&gt;" style="text;html=1;whiteSpace=wrap;overflow=hidden;rounded=0;" vertex="1" parent="1">
          <mxGeometry x="20" y="1990" width="690" height="160" as="geometry" />
        </mxCell>
      </root>
    </mxGraphModel>
  </diagram>
</mxfile>
